# xmcd
#
# Track frame offsets:
#	150
#	15955
#	32493
#	50102
#	66695
#	82410
#	99105
#	117040
#	133473
#	157071
#	172633
#	189641
#
# Disc length: 2745 seconds
#
# Revision: 0
# Processed by: cddbd v1.5.2PL0 Copyright (c) Steve Scherf et al.
# Submitted via: EasyCDDAExtractor 5.0.0.0
#
DISCID=a10ab70c
DTITLE=Kardinâls - Laimes Paslçpes
DYEAR=1900
DGENRE=Country
TTITLE0=Laimes Paslçpes
TTITLE1=Pavedinoðâ
TTITLE2=Íirðu Pasaka
TTITLE3=Mazâ Raganiòa
TTITLE4=Dejas Spogulî
TTITLE5=Sirsniòu Pasts
TTITLE6=Greizie Rati (veltîjums Balvu rajonam)
TTITLE7=Manâs Debesîs Iemîlçties
TTITLE8=Ceïð Starp Mums
TTITLE9=Mani Sapòi
TTITLE10=Tâ Tomçr Nav
TTITLE11=Nesajustâ Plauksta
EXTD=
EXTT0=
EXTT1=
EXTT2=
EXTT3=
EXTT4=
EXTT5=
EXTT6=
EXTT7=
EXTT8=
EXTT9=
EXTT10=
EXTT11=
PLAYORDER=
